<svg xmlns="http://www.w3.org/2000/svg" viewBox="0 0 900 1200"><defs><linearGradient id="sky" x2=".2" y2="1"><stop stop-color="#3d305d"/><stop offset=".55" stop-color="#ac7fa2"/><stop offset="1" stop-color="#edc6c6"/></linearGradient><radialGradient id="halo"><stop stop-color="#fbddca" stop-opacity=".24"/><stop offset="1" stop-color="#fbddca" stop-opacity="0"/></radialGradient><linearGradient id="shade" x2="0" y2="1"><stop stop-color="#111523" stop-opacity="0"/><stop offset="1" stop-color="#111523" stop-opacity=".25"/></linearGradient></defs><path fill="url(#sky)" d="M0 0h900v1200H0Z"/><circle cx="302" cy="184" r="1" fill="#fff0e8" opacity="0.5"/><circle cx="441" cy="255" r="2" fill="#fff0e8" opacity="0.25"/><circle cx="580" cy="326" r="3" fill="#fff0e8" opacity="0.5"/><circle cx="719" cy="397" r="1" fill="#fff0e8" opacity="0.25"/><circle cx="858" cy="468" r="2" fill="#fff0e8" opacity="0.5"/><circle cx="117" cy="539" r="3" fill="#fff0e8" opacity="0.25"/><circle cx="256" cy="60" r="1" fill="#fff0e8" opacity="0.5"/><circle cx="395" cy="131" r="2" fill="#fff0e8" opacity="0.25"/><circle cx="534" cy="202" r="3" fill="#fff0e8" opacity="0.5"/><circle cx="673" cy="273" r="1" fill="#fff0e8" opacity="0.25"/><circle cx="812" cy="344" r="2" fill="#fff0e8" opacity="0.5"/><circle cx="71" cy="415" r="3" fill="#fff0e8" opacity="0.25"/><circle cx="210" cy="486" r="1" fill="#fff0e8" opacity="0.5"/><circle cx="349" cy="557" r="2" fill="#fff0e8" opacity="0.25"/><circle cx="488" cy="78" r="3" fill="#fff0e8" opacity="0.5"/><circle cx="627" cy="149" r="1" fill="#fff0e8" opacity="0.25"/><circle cx="766" cy="220" r="2" fill="#fff0e8" opacity="0.5"/><circle cx="25" cy="291" r="3" fill="#fff0e8" opacity="0.25"/><circle cx="164" cy="362" r="1" fill="#fff0e8" opacity="0.5"/><circle cx="303" cy="433" r="2" fill="#fff0e8" opacity="0.25"/><circle cx="442" cy="504" r="3" fill="#fff0e8" opacity="0.5"/><circle cx="581" cy="25" r="1" fill="#fff0e8" opacity="0.25"/><circle cx="720" cy="96" r="2" fill="#fff0e8" opacity="0.5"/><circle cx="859" cy="167" r="3" fill="#fff0e8" opacity="0.25"/><circle cx="118" cy="238" r="1" fill="#fff0e8" opacity="0.5"/><circle cx="257" cy="309" r="2" fill="#fff0e8" opacity="0.25"/><circle cx="396" cy="380" r="3" fill="#fff0e8" opacity="0.5"/><circle cx="535" cy="451" r="1" fill="#fff0e8" opacity="0.25"/><circle cx="590" cy="325" r="280" fill="url(#halo)"/><circle cx="590" cy="325" r="60" fill="#fbddca" opacity=".88"/><path d="M0 850Q350 650 900 860V1200H0Z" fill="#6c5b75"/><path d="M0 960Q500 740 900 980V1200H0Z" fill="#3d4557"/><path d="M275 1050V790l180-180 180 180v260Z" fill="#b8a5ba" opacity=".3" stroke="#dec4c4" stroke-width="7"/><path d="M275 790h360M455 610v440M330 735v315M580 735v315" stroke="#d5b8c0" stroke-width="5" opacity=".6"/><path d="M0 1200V610q230 70 175 330l70 260ZM900 1200V520q-240 110-180 390l-75 290Z" fill="#383d50"/><g fill="#c5a0bd"><ellipse cx="90" cy="590" rx="220" ry="130"/><ellipse cx="840" cy="510" rx="180" ry="160"/></g><g fill="#edd2d7"><circle cx="195" cy="640" r="9"/><circle cx="280" cy="810" r="6"/><circle cx="677" cy="708" r="8"/><circle cx="611" cy="560" r="6"/></g><path fill="url(#shade)" d="M0 0h900v1200H0Z"/><g fill="none" stroke="#fbddca" stroke-opacity=".1"><path d="M35 35h830v1130H35Z"/><path d="M48 48h804v1104H48Z"/></g></svg>
